# xmcd
#
# Track frame offsets:
#	150
#	21080
#	42226
#	64721
#	75955
#	98985
#	119389
#	137643
#	161398
#	182368
#
# Disc length: 2693 seconds
#
# Revision: 2
# Processed by: cddbd v1.5.2PL0 Copyright (c) Steve Scherf et al.
# Submitted via: EZCDAudioConverter 8.0.2.1
#
DISCID=710a830a
DTITLE=Various Artist - st. Trần Thiện Thanh 2. Tình Thư Của Lính
DYEAR=2006
DGENRE=Pop
TTITLE0=Trish, Asia 4 - Tình Thư Của Lính
TTITLE1=Don Hồ - Tình đầu tình cuối
TTITLE2=Tuấn Vũ, Kim Anh - LK Không bao giờ ngăn cách
TTITLE3=Cardin, Thùy Hương - Cho anh xin số nhà
TTITLE4=Nguyên Khang, Ngọc Hạ - Khi người yêu tôi khóc
TTITLE5=Y Phương, Trúc Mai - Bảy ngày đợi mong
TTITLE6=Mai Lệ Huyền, Anh Minh - Tình có như không
TTITLE7=Lê Uyên, Thiên Kim - CHiều trên phá Tam Giang
TTITLE8=Khải tuấn, Dạ Nhật Yến - Hoa biển
TTITLE9=Diễm Liên, Minh Thông - Góa phụ ngây thơ
EXTD=
EXTT0=
EXTT1=
EXTT2=
EXTT3=
EXTT4=
EXTT5=
EXTT6=
EXTT7=
EXTT8=
EXTT9=
PLAYORDER=
